<svg width="500" height="500" viewBox="0 0 500 500" xmlns="http://www.w3.org/2000/svg">
  <circle cx="250" cy="250" r="240" fill="#FF9933" stroke="#E67E22" stroke-width="5"/>
  
  <circle cx="250" cy="250" r="210" fill="none" stroke="#D35400" stroke-width="2" stroke-dasharray="10,10"/>

  <circle cx="250" cy="250" r="180" fill="none" stroke="#000080" stroke-width="15"/>
  
  <g id="spokes" transform="translate(250,250)">
    <circle r="10" fill="#000080"/>
    <path d="M 0,-180 L 5,-20 L -5,-20 Z" fill="#000080" transform="rotate(0)"/>
    <rect width="2" height="160" x="-1" y="-170" fill="#000080" transform="rotate(15)"/>
    <rect width="2" height="160" x="-1" y="-170" fill="#000080" transform="rotate(30)"/>
    <rect width="2" height="160" x="-1" y="-170" fill="#000080" transform="rotate(45)"/>
    <rect width="2" height="160" x="-1" y="-170" fill="#000080" transform="rotate(60)"/>
    <rect width="2" height="160" x="-1" y="-170" fill="#000080" transform="rotate(75)"/>
    <rect width="2" height="160" x="-1" y="-170" fill="#000080" transform="rotate(90)"/>
    <rect width="2" height="160" x="-1" y="-170" fill="#000080" transform="rotate(105)"/>
    <rect width="2" height="160" x="-1" y="-170" fill="#000080" transform="rotate(120)"/>
    <rect width="2" height="160" x="-1" y="-170" fill="#000080" transform="rotate(135)"/>
    <rect width="2" height="160" x="-1" y="-170" fill="#000080" transform="rotate(150)"/>
    <rect width="2" height="160" x="-1" y="-170" fill="#000080" transform="rotate(165)"/>
    <rect width="2" height="160" x="-1" y="-170" fill="#000080" transform="rotate(180)"/>
    <rect width="2" height="160" x="-1" y="-170" fill="#000080" transform="rotate(195)"/>
    <rect width="2" height="160" x="-1" y="-170" fill="#000080" transform="rotate(210)"/>
    <rect width="2" height="160" x="-1" y="-170" fill="#000080" transform="rotate(225)"/>
    <rect width="2" height="160" x="-1" y="-170" fill="#000080" transform="rotate(240)"/>
    <rect width="2" height="160" x="-1" y="-170" fill="#000080" transform="rotate(255)"/>
    <rect width="2" height="160" x="-1" y="-170" fill="#000080" transform="rotate(270)"/>
    <rect width="2" height="160" x="-1" y="-170" fill="#000080" transform="rotate(285)"/>
    <rect width="2" height="160" x="-1" y="-170" fill="#000080" transform="rotate(300)"/>
    <rect width="2" height="160" x="-1" y="-170" fill="#000080" transform="rotate(315)"/>
    <rect width="2" height="160" x="-1" y="-170" fill="#000080" transform="rotate(330)"/>
    <rect width="2" height="160" x="-1" y="-170" fill="#000080" transform="rotate(345)"/>
  </g>

  <g transform="translate(250,250)">
    <path d="M0,-80 C20,-40 40,-40 0,0 C-40,-40 -20,-40 0,-80" fill="#138808" transform="rotate(0)"/>
    <path d="M0,-80 C20,-40 40,-40 0,0 C-40,-40 -20,-40 0,-80" fill="#138808" transform="rotate(45)"/>
    <path d="M0,-80 C20,-40 40,-40 0,0 C-40,-40 -20,-40 0,-80" fill="#138808" transform="rotate(90)"/>
    <path d="M0,-80 C20,-40 40,-40 0,0 C-40,-40 -20,-40 0,-80" fill="#138808" transform="rotate(135)"/>
    <path d="M0,-80 C20,-40 40,-40 0,0 C-40,-40 -20,-40 0,-80" fill="#138808" transform="rotate(180)"/>
    <path d="M0,-80 C20,-40 40,-40 0,0 C-40,-40 -20,-40 0,-80" fill="#138808" transform="rotate(225)"/>
    <path d="M0,-80 C20,-40 40,-40 0,0 C-40,-40 -20,-40 0,-80" fill="#138808" transform="rotate(270)"/>
    <path d="M0,-80 C20,-40 40,-40 0,0 C-40,-40 -20,-40 0,-80" fill="#138808" transform="rotate(315)"/>
    
    <circle r="15" fill="#FFFFFF" stroke="#000080" stroke-width="2"/>
    <circle r="8" fill="#138808"/>
  </g>
</svg>
