<svg xmlns="http://www.w3.org/2000/svg" width="1000" height="1000" viewBox="0 0 1000 1000">
<rect width="100%" height="100%" fill="#e6e6e6"/>
<circle cx="500.0" cy="500.0" r="480" fill="#ff9933"/>
<circle cx="500.0" cy="500.0" r="360" fill="white"/>
<line x1="700.0" y1="500.0" x2="860.0" y2="500.0" stroke="#cfcfcf" stroke-width="3"/>
<line x1="693.1851652578137" y1="551.7638090205041" x2="847.7332974640647" y2="593.1748562369074" stroke="#cfcfcf" stroke-width="3"/>
<line x1="673.2050807568878" y1="600.0" x2="811.7691453623979" y2="680.0" stroke="#cfcfcf" stroke-width="3"/>
<line x1="641.4213562373095" y1="641.4213562373095" x2="754.5584412271571" y2="754.5584412271571" stroke="#cfcfcf" stroke-width="3"/>
<line x1="600.0" y1="673.2050807568877" x2="680.0" y2="811.7691453623979" stroke="#cfcfcf" stroke-width="3"/>
<line x1="551.7638090205041" y1="693.1851652578137" x2="593.1748562369074" y2="847.7332974640647" stroke="#cfcfcf" stroke-width="3"/>
<line x1="500.0" y1="700.0" x2="500.0" y2="860.0" stroke="#cfcfcf" stroke-width="3"/>
<line x1="448.23619097949586" y1="693.1851652578137" x2="406.82514376309257" y2="847.7332974640647" stroke="#cfcfcf" stroke-width="3"/>
<line x1="400.00000000000006" y1="673.2050807568878" x2="320.0000000000001" y2="811.7691453623979" stroke="#cfcfcf" stroke-width="3"/>
<line x1="358.5786437626905" y1="641.4213562373095" x2="245.4415587728429" y2="754.5584412271571" stroke="#cfcfcf" stroke-width="3"/>
<line x1="326.79491924311225" y1="600.0" x2="188.23085463760208" y2="680.0" stroke="#cfcfcf" stroke-width="3"/>
<line x1="306.81483474218635" y1="551.7638090205043" x2="152.26670253593545" y2="593.1748562369075" stroke="#cfcfcf" stroke-width="3"/>
<line x1="300.0" y1="500.0" x2="140.0" y2="500.00000000000006" stroke="#cfcfcf" stroke-width="3"/>
<line x1="306.81483474218635" y1="448.23619097949586" x2="152.2667025359354" y2="406.8251437630925" stroke="#cfcfcf" stroke-width="3"/>
<line x1="326.79491924311225" y1="400.00000000000006" x2="188.23085463760202" y2="320.0000000000001" stroke="#cfcfcf" stroke-width="3"/>
<line x1="358.57864376269043" y1="358.5786437626906" x2="245.44155877284277" y2="245.44155877284302" stroke="#cfcfcf" stroke-width="3"/>
<line x1="399.9999999999999" y1="326.7949192431123" x2="319.99999999999983" y2="188.2308546376022" stroke="#cfcfcf" stroke-width="3"/>
<line x1="448.23619097949586" y1="306.81483474218635" x2="406.82514376309257" y2="152.2667025359354" stroke="#cfcfcf" stroke-width="3"/>
<line x1="499.99999999999994" y1="300.0" x2="499.99999999999994" y2="140.0" stroke="#cfcfcf" stroke-width="3"/>
<line x1="551.763809020504" y1="306.81483474218635" x2="593.1748562369073" y2="152.2667025359354" stroke="#cfcfcf" stroke-width="3"/>
<line x1="600.0" y1="326.7949192431123" x2="680.0" y2="188.23085463760208" stroke="#cfcfcf" stroke-width="3"/>
<line x1="641.4213562373095" y1="358.5786437626905" x2="754.558441227157" y2="245.44155877284282" stroke="#cfcfcf" stroke-width="3"/>
<line x1="673.2050807568877" y1="399.9999999999999" x2="811.7691453623978" y2="319.99999999999983" stroke="#cfcfcf" stroke-width="3"/>
<line x1="693.1851652578137" y1="448.2361909794957" x2="847.7332974640644" y2="406.8251437630922" stroke="#cfcfcf" stroke-width="3"/>
<circle cx="500.0" cy="500.0" r="200" fill="#1a2f8f"/>
<circle cx="500.0" cy="500.0" r="170" fill="white"/>
<circle cx="500.0" cy="500.0" r="120" fill="#138808"/>
</svg>